<?xml version="1.0" encoding="UTF-8"?>
<svg id="Layer_1" data-name="Layer 1" xmlns="http://www.w3.org/2000/svg" viewBox="0 0 288 288">
  <defs>
    <style>
      .cls-1 {
        fill: #fff;
      }
    </style>
  </defs>
  <path class="cls-1" d="m131.81,210.38c-1.63-.43-2.91-.77-4.18-1.11-13.35-3.53-25.76-8.97-36.42-17.95-11.28-9.5-18.66-21.53-22.33-35.73-4.77-18.46-5.1-37.01.11-55.48,1.01-3.57,2.35-7.05,3.7-10.52.36-.92,1.14-1.92,2-2.38,14.95-7.92,29.62-16.32,43.87-25.44,8.49-5.44,16.75-11.22,25.12-16.85.08-.05.19-.06.58-.16,0,1.78.18,3.52-.06,5.19-.19,1.28.17,2.2.86,3.14,6.71,9.2,13.41,18.4,20.12,27.59,7.17,9.82,14.35,19.63,21.52,29.45.15.2.3.4.58.79.13-.45.26-.7.27-.96.16-8.8.34-17.59.46-26.39.09-6.73-1.58-12.89-6.37-18.15,1.35-.76,2.59-1.48,3.85-2.16,10.66-5.83,21.34-11.61,31.95-17.5,1.96-1.09,1.65-1.23,3.41.52.94.93.97,1.62.1,2.73-2.96,3.74-4.21,8.17-4.41,12.85-.31,7.55-.53,15.1-.63,22.65-.2,14.54-.27,29.09-.43,43.63-.14,12.68-.27,25.35-.56,38.03-.14,6.06-.46,12.09.63,18.1.73,3.99,2.63,7.46,4.46,11.01,1.15,2.22,2.2,4.61,2.63,7.05.81,4.62-1.49,8.36-4.48,11.59-2.42,2.62-5.07,5.03-7.69,7.45-7.52,6.96-15.09,13.86-22.59,20.84-1,.93-1.72,1.19-3.09.65-8.8-3.46-17.96-5.64-27.35-6.54-6.32-.61-12.7-1.04-19.05-.95-13.86.19-27.33,2.75-40.33,7.63-1.01.38-1.58.33-2.15-.63-.79-1.33-1.69-2.6-2.6-3.86-.64-.89-.45-1.32.46-1.94,12.37-8.4,24.69-16.86,37.03-25.3.25-.17.45-.4,1-.9Zm-21.35-49.11c.18.38.21.55.31.66.34.39.69.77,1.05,1.14,4.51,4.61,9.56,8.54,15.07,11.89,11.15,6.78,23.1,11.25,36.19,12.3.92.07,1.98-.14,2.79-.57,5.59-2.97,10.38-6.98,14.46-11.8,3.11-3.67,5.67-7.74,6.46-12.54.75-4.57,1.44-9.04-1.76-13.41-13.73-18.73-27.19-37.64-40.76-56.49-.16-.22-.39-.38-.71-.68-.07.56-.15.91-.15,1.27,0,9.57-.03,19.14.05,28.71.05,6.05,1.63,11.64,5.57,16.4.37.45.6,1.02.83,1.43-13.35,7.04-26.77,13.58-39.41,21.7Zm3.79-89.11c-.4.18-.6.23-.76.34-.3.2-.59.42-.87.65-6.17,5.22-10.53,11.66-12.6,19.5-3.77,14.31-4.25,28.8-1.76,43.37,1.23,7.19,3.58,14.01,7.7,20.12.42.62.93,1.17,1.49,1.87,2.4-2.63,3.89-5.46,4.7-8.67,1.79-7.05,1.49-14.3,1.69-21.46.34-12.67.13-25.36.18-38.04,0-2.38.19-4.75.22-7.13.04-3.44.01-6.89.01-10.55Zm73.78,108.97c-13.62,9.39-26.73,18.44-39.89,27.52.18.12.29.26.42.27.88.05,1.76.11,2.63.1,10.88-.15,21.6,1.02,31.87,4.69,5.62,2.01,11,4.69,16.45,7.16.98.44,1.43.38,1.96-.55,1.23-2.18,1.13-4.29-.37-6.23-1.63-2.13-3.41-4.15-5.12-6.22-4.45-5.39-7.45-11.42-7.92-18.48-.17-2.6-.03-5.22-.03-8.24Z"/>
</svg>